<svg width="151" height="62" viewBox="0 0 151 62" fill="none" xmlns="http://www.w3.org/2000/svg">
<mask id="path-1-outside-1_740_5" maskUnits="userSpaceOnUse" x="-0.800781" y="-0.800003" width="152" height="63" fill="black">
<rect fill="white" x="-0.800781" y="-0.800003" width="152" height="63"/>
<path d="M10.2336 18.4181C8.67483 21.9662 7.89547 25.139 7.89547 27.9366C7.89547 33.7022 9.77894 37.2333 13.5459 38.5297C14.65 38.8367 15.7703 38.9903 16.9069 38.9903C18.0759 38.9903 19.245 38.8367 20.414 38.5297C22.7521 37.8815 24.8467 36.9092 26.6977 35.6127C28.5487 34.3163 29.7177 33.0711 30.2048 31.877C31.5038 28.7042 32.9002 27.1178 34.3939 27.1178C35.1408 27.1178 35.6442 27.5613 35.904 28.4483C36.0339 28.7895 36.0663 29.1648 36.0014 29.5742C35.6767 32.2352 34.9785 34.8792 33.9068 37.5062C32.8352 40.099 31.3252 43.0842 29.3768 46.4617C33.2736 46.4959 36.8295 46.9394 40.0444 47.7923C40.7263 47.9629 41.0673 48.2017 41.0673 48.5087C41.0673 48.884 40.5964 48.9522 39.6547 48.7134C37.414 48.0993 34.1829 47.7923 29.9613 47.7923C29.5716 47.7923 29.1495 47.7923 28.6948 47.7923C26.7139 50.7945 24.0673 53.4385 20.755 55.7243C17.4752 58.0442 14.2765 59.6306 11.1591 60.4836C9.43796 60.9612 7.97665 61.2 6.77513 61.2C5.5736 61.2 4.56692 61.0465 3.75508 60.7394C1.38451 59.8183 0.199219 58.6072 0.199219 57.106C0.199219 56.6625 0.312876 56.1849 0.540192 55.6731C1.41698 53.6262 3.72261 51.7327 7.45707 49.9928C10.2823 48.6622 13.2536 47.7582 16.3711 47.2805C19.521 46.8029 23.0444 46.53 26.9412 46.4617C29.3443 42.1972 30.9842 38.0009 31.861 33.8728L32.0558 33.0028C30.4971 34.5722 28.7273 35.971 26.7464 37.1992C24.798 38.3932 23.0931 39.2291 21.6318 39.7067C19.2937 40.4914 17.3615 40.8837 15.8353 40.8837C14.3415 40.8837 13.0263 40.662 11.8897 40.2185C9.81141 39.4679 8.12278 37.9668 6.82384 35.7151C5.42747 33.327 4.72929 30.4782 4.72929 27.169C4.72929 23.8597 5.55737 20.3116 7.21352 16.5247C5.07026 14.2048 3.99863 11.7484 3.99863 9.15553C3.99863 6.52858 5.00531 4.03808 7.01868 1.68406C7.40836 1.24054 7.68439 1.08702 7.84676 1.22348C8.0416 1.32584 7.97665 1.61583 7.65191 2.09345C6.1906 4.14043 5.45995 6.20447 5.45995 8.28557C5.45995 10.6737 6.30426 12.9083 7.99289 14.9894C8.18773 14.5459 8.54494 13.8806 9.06452 12.9936C11.5975 8.62673 15.0397 5.28333 19.3911 2.96342C22.8009 1.12114 26.0969 0.199997 29.2793 0.199997C30.1561 0.199997 31.0329 0.26823 31.9097 0.404696C36.0988 1.08702 38.924 2.89519 40.3853 5.82919C40.9699 6.98915 41.2621 8.25145 41.2621 9.6161C41.2621 10.9466 40.8562 12.3795 40.0444 13.9148C38.2258 17.224 35.0434 19.544 30.4971 20.8745C28.0941 21.5909 25.6423 21.9492 23.1418 21.9492C17.8811 21.9492 13.5784 20.7721 10.2336 18.4181ZM30.3997 1.7864C27.607 1.7864 24.6519 2.77578 21.5344 4.75453C16.9556 7.6203 13.3997 11.7313 10.8668 17.0876C12.3931 18.3158 14.1466 19.1857 16.1275 19.6975C18.1409 20.2092 19.7483 20.4651 20.9499 20.4651C27.8018 20.4651 32.9813 18.5375 36.4885 14.6824C38.2421 12.7036 39.1189 10.7249 39.1189 8.74614C39.1189 5.60744 37.4465 3.49222 34.1017 2.4005C32.8677 1.9911 31.6337 1.7864 30.3997 1.7864ZM2.68345 57.4643C2.68345 58.4195 3.46282 59.0677 5.02155 59.4089C5.54113 59.5454 6.10942 59.6136 6.72642 59.6136C9.03204 59.6136 11.9547 58.7436 15.4943 57.0037C19.9757 54.8544 23.5315 51.8009 26.1619 47.8435C22.7522 47.9458 19.7646 48.2187 17.1992 48.6622C13.4972 49.2422 9.97378 50.658 6.629 52.9097C3.99863 54.6838 2.68345 56.2019 2.68345 57.4643ZM54.1809 28.1924C53.5964 28.8065 52.7683 30.2053 51.6967 32.3888C50.6251 34.5381 49.9756 36.1586 49.7483 37.2503C49.5534 38.3079 49.456 39.1779 49.456 39.8602C49.456 40.5084 49.6996 40.8325 50.1867 40.8325C50.8037 40.8325 51.5668 40.2355 52.4761 39.0414C53.8075 37.3015 55.1227 35.0328 56.4216 32.2352C56.5515 31.9282 56.6976 31.7576 56.86 31.7235C57.1198 31.6211 57.2497 31.7235 57.2497 32.0305C57.2497 32.2011 57.201 32.4058 57.1036 32.6446C54.116 38.9903 51.5993 42.1631 49.5534 42.1631C48.6117 42.1631 47.8486 41.6855 47.2641 40.7302C46.9718 40.2185 46.8257 39.5361 46.8257 38.6832C46.8257 37.8303 46.988 36.7898 47.3128 35.5616C44.7149 39.9626 42.4742 42.1631 40.5907 42.1631C40.0711 42.1631 39.6003 41.9925 39.1781 41.6513C38.2039 40.9349 37.7168 39.7067 37.7168 37.9668C37.7168 34.6234 39.0969 31.2288 41.8572 27.7831C43.4159 25.8725 45.3319 24.6273 47.605 24.0473C48.222 23.8767 48.8065 23.7914 49.3586 23.7914C50.8524 23.7914 52.1189 24.3373 53.158 25.429C53.4828 25.8043 53.5802 26.1625 53.4503 26.5037C53.3204 26.8449 53.0444 26.9813 52.6222 26.9131C52.265 25.6849 51.4856 25.0708 50.2841 25.0708C48.8877 25.0708 47.1666 26.2308 45.1208 28.5507C43.9517 29.9153 42.8639 31.5188 41.8572 33.3611C40.5907 35.5786 39.9575 37.3527 39.9575 38.6832C39.9575 40.0138 40.3634 40.679 41.1752 40.679C43.1237 40.679 45.6728 37.5403 48.8228 31.2629C49.4398 30.0006 49.9594 29.1477 50.3815 28.7042C50.8037 28.2266 51.3395 27.9877 51.989 27.9877C52.1189 27.9877 52.4436 28.0389 52.9632 28.1413C53.5152 28.2436 53.9211 28.2607 54.1809 28.1924ZM62.9299 21.5398C62.9299 23.075 62.0044 24.5249 60.1534 25.8896C60.8028 25.9237 61.6634 25.9408 62.735 25.9408C63.8391 25.9408 65.2193 25.8555 66.8754 25.6849C66.9404 25.7872 66.9728 26.0602 66.9728 26.5037C66.9728 26.9472 66.778 27.6125 66.3883 28.4995C65.9986 29.3524 65.6414 30.103 65.3167 30.7512C65.0244 31.3653 64.7322 31.9623 64.4399 32.5423C64.1801 33.0881 63.8716 33.7705 63.5144 34.5893C63.1897 35.408 62.9136 36.1586 62.6863 36.8409C61.8745 39.4338 62.0044 40.7302 63.076 40.7302C64.4399 40.7302 66.4533 37.8815 69.1161 32.1841C69.3434 31.7405 69.522 31.57 69.6519 31.6723C69.8143 31.7747 69.8955 31.9111 69.8955 32.0817C69.8955 32.2182 69.6844 32.747 69.2622 33.6681C68.8401 34.5551 68.3854 35.4763 67.8983 36.4315C67.4112 37.3868 66.6481 38.4956 65.6089 39.7579C64.3749 41.3272 63.1897 42.1119 62.0531 42.1119C60.7866 42.1119 59.9098 41.3102 59.4227 39.7067C59.3253 39.3997 59.2766 38.9391 59.2766 38.325C59.2766 37.7109 59.4552 36.8921 59.8124 35.8686C60.2021 34.8451 60.8028 33.5999 61.6147 32.1329C62.4265 30.6659 62.8812 29.813 62.9786 29.5742C63.076 29.3012 63.1247 29.0454 63.1247 28.8065C63.1247 27.7489 61.8258 27.186 59.2279 27.1178L58.6433 28.7554C56.5975 34.3846 54.6329 38.1544 52.7494 40.0649C52.4247 40.372 52.2623 40.2696 52.2623 39.7579C52.2623 39.6555 52.2948 39.5361 52.3597 39.3997C54.1782 36.8751 55.7532 33.8899 57.0846 30.4441C58.416 26.9984 59.3415 23.7232 59.8611 20.6186C60.0559 19.561 60.5106 19.0322 61.225 19.0322C61.9394 19.0322 62.459 19.5098 62.7837 20.4651C62.8812 20.7721 62.9299 21.1304 62.9299 21.5398ZM79.3339 39.0926C79.3339 40.1843 79.7561 40.7302 80.6004 40.7302C82.1267 40.7302 84.1563 38.0521 86.6892 32.6958C86.7866 32.4911 86.8678 32.2864 86.9328 32.0817C87.0302 31.877 87.1601 31.7405 87.3224 31.6723C87.5173 31.6041 87.6472 31.6553 87.7121 31.8258C87.7771 31.9623 87.7446 32.2011 87.6147 32.5423C85.0168 38.8879 82.3864 42.0607 79.7236 42.0607C78.8468 42.0607 78.1486 41.6513 77.6291 40.8325C77.1095 40.0138 76.8497 39.212 76.8497 38.4273C76.8497 37.6086 76.9309 36.858 77.0932 36.1757C75.2098 39.4508 73.5861 41.3102 72.2222 41.7537C71.8325 41.9243 71.4428 42.0096 71.0532 42.0096C70.6959 42.0096 70.3387 41.9584 69.9815 41.856C68.3903 41.4125 67.5947 40.082 67.5947 37.8644C67.5947 36.3633 67.9519 34.7087 68.6663 32.9005C69.4132 31.0582 70.4524 29.3012 71.7838 27.6295C73.1152 25.9578 74.7227 24.832 76.6061 24.252C77.2881 24.0132 78.0837 23.8938 78.993 23.8938C79.9347 23.8938 80.9738 24.2008 82.1104 24.8149C84.3186 20.448 86.2021 16.4053 87.7608 12.6866C88.2155 11.5607 88.6538 10.8443 89.076 10.5372C89.5306 10.1961 89.9366 10.0255 90.2938 10.0255C90.6835 10.0255 90.9108 10.0255 90.9757 10.0255C91.0731 10.0255 91.3816 10.0767 91.9012 10.179C92.4533 10.2473 92.8754 10.2643 93.1677 10.2302C92.4208 10.9466 90.4399 14.4265 87.225 20.6698C83.1333 28.653 80.6653 33.9752 79.821 36.6362C79.4963 37.6256 79.3339 38.4444 79.3339 39.0926ZM81.7207 25.6337C81.2986 25.1902 80.6978 24.9685 79.9184 24.9685C79.1716 24.9685 78.1162 25.5655 76.7523 26.7596C74.5765 28.6701 72.7743 31.0241 71.3454 33.8216C70.4037 35.6639 69.9328 37.1821 69.9328 38.3762C69.9328 38.922 70.0302 39.4167 70.2251 39.8602C70.4524 40.3037 70.7934 40.5255 71.248 40.5255C72.3521 40.5255 73.716 39.3314 75.3397 36.9433C76.9633 34.5551 79.0904 30.7853 81.7207 25.6337ZM89.0852 34.1799C88.6306 35.3398 88.4033 36.6362 88.4033 38.0691C88.4033 39.0244 88.5981 39.792 88.9878 40.372C89.4099 40.9178 89.9945 41.1908 90.7414 41.1908C93.6965 41.1908 96.3755 38.2738 98.7786 32.4399C99.0059 31.8941 99.2819 31.6553 99.6067 31.7235C99.7366 31.7576 99.8015 31.8429 99.8015 31.9794C99.8015 32.1158 99.4281 33.0199 98.6812 34.6916C97.9668 36.3292 97.2361 37.6597 96.4892 38.6832C94.833 41.0714 92.7872 42.2654 90.3517 42.2654C89.0527 42.2654 87.9486 41.8219 87.0394 40.9349C86.1301 40.0479 85.6755 38.8367 85.6755 37.3015C85.6755 35.7663 86.0165 34.1457 86.6984 32.4399C87.4128 30.7 88.3708 29.0965 89.5723 27.6295C90.7738 26.1284 92.154 25.0367 93.7127 24.3544C94.4596 24.0132 95.174 23.8426 95.856 23.8426C96.5379 23.8426 97.1711 24.0473 97.7557 24.4567C98.3077 24.9343 98.5837 25.4631 98.5837 26.0431C98.5837 28.0901 97.4147 30.0518 95.0766 31.9282C94.3622 32.5082 93.3555 33.037 92.0565 33.5146C90.7576 33.9581 89.7672 34.1799 89.0852 34.1799ZM97.2686 25.9919C97.2686 25.3096 97.0088 24.9685 96.4892 24.9685C95.5799 24.9685 94.1998 26.1455 92.3488 28.4995C91.2447 29.9324 90.2705 31.5358 89.4262 33.3099C89.9782 33.3099 90.7738 33.1052 91.813 32.6958C92.8846 32.2864 93.8101 31.7405 94.5895 31.0582C96.3755 29.4548 97.2686 27.766 97.2686 25.9919ZM113.64 25.2755C109.646 32.6446 107.648 37.455 107.648 39.7067C107.648 40.5937 107.957 41.0372 108.574 41.0372C110.23 41.0372 112.455 38.0862 115.247 32.1841C115.442 31.7064 115.637 31.5188 115.832 31.6211C116.027 31.7235 116.124 31.86 116.124 32.0305C116.124 32.2011 116.059 32.4058 115.929 32.6446C114.208 36.2951 112.747 38.8197 111.545 40.2185C110.376 41.5831 109.191 42.2654 107.989 42.2654C106.82 42.2654 105.927 41.7878 105.31 40.8325C104.986 40.389 104.823 39.792 104.823 39.0414C104.823 38.2568 104.986 37.3186 105.31 36.2268C105.635 35.1351 106.528 33.3611 107.989 30.9047C108.347 30.2906 108.525 29.813 108.525 29.4718C108.525 29.0965 108.249 28.9089 107.697 28.9089C107.145 28.9089 106.09 29.6765 104.531 31.2117C102.193 33.4634 99.936 36.8409 97.76 41.3443C97.5654 41.6855 97.3381 41.9072 97.0783 42.0096C96.851 42.0778 96.3799 42.129 95.6654 42.1631C94.951 42.1972 94.4802 42.2825 94.2528 42.419C94.7724 41.3272 95.7953 39.0926 97.3219 35.7151C100.05 29.7447 101.836 26.3331 102.68 25.4802C103.07 25.0708 103.606 24.8661 104.287 24.8661C104.417 24.8661 104.742 24.9173 105.262 25.0196C105.814 25.122 106.22 25.139 106.479 25.0708C105.278 25.7531 103.313 28.9601 100.585 34.6916C102.112 32.7129 103.492 31.1435 104.726 29.9836C105.992 28.7895 107.502 27.6978 109.256 26.7084C111.01 25.6849 112.292 25.1732 113.104 25.1732C113.299 25.1732 113.478 25.2073 113.64 25.2755ZM121.918 22.1539C121.464 22.5633 120.961 22.768 120.408 22.768C119.856 22.768 119.418 22.5633 119.093 22.1539C118.769 21.7445 118.639 21.2498 118.704 20.6698C118.801 20.0898 119.077 19.5951 119.532 19.1857C119.986 18.7763 120.49 18.5716 121.042 18.5716C121.594 18.5716 122.032 18.7763 122.357 19.1857C122.714 19.5951 122.844 20.0898 122.747 20.6698C122.649 21.2498 122.373 21.7445 121.918 22.1539ZM117.145 40.9349C117.762 40.9349 118.411 40.6108 119.093 39.9626C120.295 38.7003 121.821 36.1245 123.672 32.2352C123.899 31.7235 124.127 31.57 124.354 31.7747C124.419 31.8429 124.451 31.9623 124.451 32.1329C124.451 32.2693 124.322 32.6446 124.062 33.2587C123.802 33.8387 123.558 34.3675 123.331 34.8451C123.136 35.3228 122.73 36.1074 122.113 37.1992C121.529 38.2568 120.993 39.0756 120.506 39.6555C119.174 41.259 117.908 42.0607 116.706 42.0607C115.537 42.0607 114.693 41.6855 114.174 40.9349C113.654 40.1843 113.394 39.3485 113.394 38.4273C113.394 37.5062 113.605 36.4998 114.027 35.408L117.145 27.0666C117.21 26.8619 117.242 26.589 117.242 26.2478C117.242 25.9067 117.047 25.4631 116.658 24.9173L119.337 24.8661C120.084 24.8661 120.522 25.0196 120.652 25.3267C120.782 25.5996 120.684 26.0431 120.36 26.6572L116.463 36.2268C115.911 37.4891 115.635 38.5638 115.635 39.4508C115.635 40.4402 116.138 40.9349 117.145 40.9349ZM125.953 27.0666C126.051 26.8619 126.099 26.589 126.099 26.2478C126.099 25.9067 125.888 25.4631 125.466 24.9173L128.145 24.8661C128.892 24.8661 129.331 25.0196 129.46 25.3267C129.59 25.5996 129.493 26.0431 129.168 26.6572L125.271 36.2268C124.46 38.2397 123.453 40.4914 122.251 42.9819C123.518 42.4701 124.443 42.0778 125.028 41.8049C125.612 41.5319 126.311 41.0372 127.122 40.3208C127.967 39.6044 128.681 38.7856 129.266 37.8644C129.883 36.9092 130.906 35.0157 132.334 32.1841C132.562 31.7064 132.757 31.5188 132.919 31.6211C133.114 31.7235 133.211 31.86 133.211 32.0305C133.211 32.2011 132.935 32.8664 132.383 34.0263C131.864 35.1522 131.328 36.2098 130.776 37.1992C130.224 38.1885 129.509 39.195 128.632 40.2185C127.756 41.2419 126.781 42.0607 125.71 42.6748C124.638 43.2889 123.209 43.9371 121.423 44.6195C118.923 49.3957 116.39 52.9097 113.824 55.1614C112.85 56.0143 111.697 56.7308 110.366 57.3107C109.035 57.9248 107.654 58.2319 106.226 58.2319C104.764 58.2319 103.644 57.9078 102.865 57.2596C102.085 56.6455 101.696 55.8949 101.696 55.0079C101.696 54.1209 101.939 53.1144 102.426 51.9886C103.27 50.2487 104.797 48.8499 107.005 47.7923C108.661 46.9735 110.853 46.2059 113.581 45.4894C116.309 44.8071 118.062 44.3465 118.842 44.1077C119.653 42.6407 120.141 41.7537 120.303 41.4466C120.433 41.1055 121.602 38.5468 123.81 33.7705C123.29 33.7705 123.144 33.4975 123.372 32.9517L125.953 27.0666ZM103.352 53.1656C102.994 53.9162 102.816 54.5985 102.816 55.2126C102.816 55.8267 103.043 56.3043 103.498 56.6455C103.952 57.0207 104.505 57.2084 105.154 57.2084C107.037 57.2084 109.067 56.1849 111.243 54.1379C114.295 51.2721 116.52 48.4746 117.916 45.7453C112.525 47.2464 109.164 48.304 107.833 48.9181C105.722 49.8734 104.228 51.2892 103.352 53.1656ZM130.386 22.1539C129.931 22.5633 129.428 22.768 128.876 22.768C128.324 22.768 127.902 22.5803 127.609 22.205C127.317 21.8298 127.171 21.5056 127.171 21.2327C127.171 20.9598 127.187 20.6527 127.22 20.3116C127.285 19.9704 127.545 19.5951 127.999 19.1857C128.454 18.7763 128.957 18.5716 129.509 18.5716C130.061 18.5716 130.483 18.7593 130.776 19.1346C131.1 19.4757 131.263 19.7828 131.263 20.0557C131.263 20.3286 131.23 20.6527 131.165 21.028C131.1 21.3692 130.841 21.7445 130.386 22.1539ZM147.13 28.1924C146.546 28.8065 145.718 30.2053 144.646 32.3888C143.575 34.5381 142.925 36.1586 142.698 37.2503C142.503 38.3079 142.406 39.1779 142.406 39.8602C142.406 40.5084 142.649 40.8325 143.136 40.8325C143.753 40.8325 144.516 40.2355 145.426 39.0414C146.757 37.3015 148.072 35.0328 149.371 32.2352C149.501 31.9282 149.647 31.7576 149.81 31.7235C150.069 31.6211 150.199 31.7235 150.199 32.0305C150.199 32.2011 150.151 32.4058 150.053 32.6446C147.066 38.9903 144.549 42.1631 142.503 42.1631C141.561 42.1631 140.798 41.6855 140.214 40.7302C139.921 40.2185 139.775 39.5361 139.775 38.6832C139.775 37.8303 139.938 36.7898 140.262 35.5616C137.664 39.9626 135.424 42.1631 133.54 42.1631C133.021 42.1631 132.55 41.9925 132.128 41.6513C131.153 40.9349 130.666 39.7067 130.666 37.9668C130.666 34.6234 132.046 31.2288 134.807 27.7831C136.365 25.8725 138.281 24.6273 140.555 24.0473C141.172 23.8767 141.756 23.7914 142.308 23.7914C143.802 23.7914 145.068 24.3373 146.108 25.429C146.432 25.8043 146.53 26.1625 146.4 26.5037C146.27 26.8449 145.994 26.9813 145.572 26.9131C145.215 25.6849 144.435 25.0708 143.234 25.0708C141.837 25.0708 140.116 26.2308 138.07 28.5507C136.901 29.9153 135.813 31.5188 134.807 33.3611C133.54 35.5786 132.907 37.3527 132.907 38.6832C132.907 40.0138 133.313 40.679 134.125 40.679C136.073 40.679 138.622 37.5403 141.772 31.2629C142.389 30.0006 142.909 29.1477 143.331 28.7042C143.753 28.2266 144.289 27.9877 144.938 27.9877C145.068 27.9877 145.393 28.0389 145.913 28.1413C146.465 28.2436 146.871 28.2607 147.13 28.1924Z"/>
</mask>
<path d="M10.2336 18.4181C8.67483 21.9662 7.89547 25.139 7.89547 27.9366C7.89547 33.7022 9.77894 37.2333 13.5459 38.5297C14.65 38.8367 15.7703 38.9903 16.9069 38.9903C18.0759 38.9903 19.245 38.8367 20.414 38.5297C22.7521 37.8815 24.8467 36.9092 26.6977 35.6127C28.5487 34.3163 29.7177 33.0711 30.2048 31.877C31.5038 28.7042 32.9002 27.1178 34.3939 27.1178C35.1408 27.1178 35.6442 27.5613 35.904 28.4483C36.0339 28.7895 36.0663 29.1648 36.0014 29.5742C35.6767 32.2352 34.9785 34.8792 33.9068 37.5062C32.8352 40.099 31.3252 43.0842 29.3768 46.4617C33.2736 46.4959 36.8295 46.9394 40.0444 47.7923C40.7263 47.9629 41.0673 48.2017 41.0673 48.5087C41.0673 48.884 40.5964 48.9522 39.6547 48.7134C37.414 48.0993 34.1829 47.7923 29.9613 47.7923C29.5716 47.7923 29.1495 47.7923 28.6948 47.7923C26.7139 50.7945 24.0673 53.4385 20.755 55.7243C17.4752 58.0442 14.2765 59.6306 11.1591 60.4836C9.43796 60.9612 7.97665 61.2 6.77513 61.2C5.5736 61.2 4.56692 61.0465 3.75508 60.7394C1.38451 59.8183 0.199219 58.6072 0.199219 57.106C0.199219 56.6625 0.312876 56.1849 0.540192 55.6731C1.41698 53.6262 3.72261 51.7327 7.45707 49.9928C10.2823 48.6622 13.2536 47.7582 16.3711 47.2805C19.521 46.8029 23.0444 46.53 26.9412 46.4617C29.3443 42.1972 30.9842 38.0009 31.861 33.8728L32.0558 33.0028C30.4971 34.5722 28.7273 35.971 26.7464 37.1992C24.798 38.3932 23.0931 39.2291 21.6318 39.7067C19.2937 40.4914 17.3615 40.8837 15.8353 40.8837C14.3415 40.8837 13.0263 40.662 11.8897 40.2185C9.81141 39.4679 8.12278 37.9668 6.82384 35.7151C5.42747 33.327 4.72929 30.4782 4.72929 27.169C4.72929 23.8597 5.55737 20.3116 7.21352 16.5247C5.07026 14.2048 3.99863 11.7484 3.99863 9.15553C3.99863 6.52858 5.00531 4.03808 7.01868 1.68406C7.40836 1.24054 7.68439 1.08702 7.84676 1.22348C8.0416 1.32584 7.97665 1.61583 7.65191 2.09345C6.1906 4.14043 5.45995 6.20447 5.45995 8.28557C5.45995 10.6737 6.30426 12.9083 7.99289 14.9894C8.18773 14.5459 8.54494 13.8806 9.06452 12.9936C11.5975 8.62673 15.0397 5.28333 19.3911 2.96342C22.8009 1.12114 26.0969 0.199997 29.2793 0.199997C30.1561 0.199997 31.0329 0.26823 31.9097 0.404696C36.0988 1.08702 38.924 2.89519 40.3853 5.82919C40.9699 6.98915 41.2621 8.25145 41.2621 9.6161C41.2621 10.9466 40.8562 12.3795 40.0444 13.9148C38.2258 17.224 35.0434 19.544 30.4971 20.8745C28.0941 21.5909 25.6423 21.9492 23.1418 21.9492C17.8811 21.9492 13.5784 20.7721 10.2336 18.4181ZM30.3997 1.7864C27.607 1.7864 24.6519 2.77578 21.5344 4.75453C16.9556 7.6203 13.3997 11.7313 10.8668 17.0876C12.3931 18.3158 14.1466 19.1857 16.1275 19.6975C18.1409 20.2092 19.7483 20.4651 20.9499 20.4651C27.8018 20.4651 32.9813 18.5375 36.4885 14.6824C38.2421 12.7036 39.1189 10.7249 39.1189 8.74614C39.1189 5.60744 37.4465 3.49222 34.1017 2.4005C32.8677 1.9911 31.6337 1.7864 30.3997 1.7864ZM2.68345 57.4643C2.68345 58.4195 3.46282 59.0677 5.02155 59.4089C5.54113 59.5454 6.10942 59.6136 6.72642 59.6136C9.03204 59.6136 11.9547 58.7436 15.4943 57.0037C19.9757 54.8544 23.5315 51.8009 26.1619 47.8435C22.7522 47.9458 19.7646 48.2187 17.1992 48.6622C13.4972 49.2422 9.97378 50.658 6.629 52.9097C3.99863 54.6838 2.68345 56.2019 2.68345 57.4643ZM54.1809 28.1924C53.5964 28.8065 52.7683 30.2053 51.6967 32.3888C50.6251 34.5381 49.9756 36.1586 49.7483 37.2503C49.5534 38.3079 49.456 39.1779 49.456 39.8602C49.456 40.5084 49.6996 40.8325 50.1867 40.8325C50.8037 40.8325 51.5668 40.2355 52.4761 39.0414C53.8075 37.3015 55.1227 35.0328 56.4216 32.2352C56.5515 31.9282 56.6976 31.7576 56.86 31.7235C57.1198 31.6211 57.2497 31.7235 57.2497 32.0305C57.2497 32.2011 57.201 32.4058 57.1036 32.6446C54.116 38.9903 51.5993 42.1631 49.5534 42.1631C48.6117 42.1631 47.8486 41.6855 47.2641 40.7302C46.9718 40.2185 46.8257 39.5361 46.8257 38.6832C46.8257 37.8303 46.988 36.7898 47.3128 35.5616C44.7149 39.9626 42.4742 42.1631 40.5907 42.1631C40.0711 42.1631 39.6003 41.9925 39.1781 41.6513C38.2039 40.9349 37.7168 39.7067 37.7168 37.9668C37.7168 34.6234 39.0969 31.2288 41.8572 27.7831C43.4159 25.8725 45.3319 24.6273 47.605 24.0473C48.222 23.8767 48.8065 23.7914 49.3586 23.7914C50.8524 23.7914 52.1189 24.3373 53.158 25.429C53.4828 25.8043 53.5802 26.1625 53.4503 26.5037C53.3204 26.8449 53.0444 26.9813 52.6222 26.9131C52.265 25.6849 51.4856 25.0708 50.2841 25.0708C48.8877 25.0708 47.1666 26.2308 45.1208 28.5507C43.9517 29.9153 42.8639 31.5188 41.8572 33.3611C40.5907 35.5786 39.9575 37.3527 39.9575 38.6832C39.9575 40.0138 40.3634 40.679 41.1752 40.679C43.1237 40.679 45.6728 37.5403 48.8228 31.2629C49.4398 30.0006 49.9594 29.1477 50.3815 28.7042C50.8037 28.2266 51.3395 27.9877 51.989 27.9877C52.1189 27.9877 52.4436 28.0389 52.9632 28.1413C53.5152 28.2436 53.9211 28.2607 54.1809 28.1924ZM62.9299 21.5398C62.9299 23.075 62.0044 24.5249 60.1534 25.8896C60.8028 25.9237 61.6634 25.9408 62.735 25.9408C63.8391 25.9408 65.2193 25.8555 66.8754 25.6849C66.9404 25.7872 66.9728 26.0602 66.9728 26.5037C66.9728 26.9472 66.778 27.6125 66.3883 28.4995C65.9986 29.3524 65.6414 30.103 65.3167 30.7512C65.0244 31.3653 64.7322 31.9623 64.4399 32.5423C64.1801 33.0881 63.8716 33.7705 63.5144 34.5893C63.1897 35.408 62.9136 36.1586 62.6863 36.8409C61.8745 39.4338 62.0044 40.7302 63.076 40.7302C64.4399 40.7302 66.4533 37.8815 69.1161 32.1841C69.3434 31.7405 69.522 31.57 69.6519 31.6723C69.8143 31.7747 69.8955 31.9111 69.8955 32.0817C69.8955 32.2182 69.6844 32.747 69.2622 33.6681C68.8401 34.5551 68.3854 35.4763 67.8983 36.4315C67.4112 37.3868 66.6481 38.4956 65.6089 39.7579C64.3749 41.3272 63.1897 42.1119 62.0531 42.1119C60.7866 42.1119 59.9098 41.3102 59.4227 39.7067C59.3253 39.3997 59.2766 38.9391 59.2766 38.325C59.2766 37.7109 59.4552 36.8921 59.8124 35.8686C60.2021 34.8451 60.8028 33.5999 61.6147 32.1329C62.4265 30.6659 62.8812 29.813 62.9786 29.5742C63.076 29.3012 63.1247 29.0454 63.1247 28.8065C63.1247 27.7489 61.8258 27.186 59.2279 27.1178L58.6433 28.7554C56.5975 34.3846 54.6329 38.1544 52.7494 40.0649C52.4247 40.372 52.2623 40.2696 52.2623 39.7579C52.2623 39.6555 52.2948 39.5361 52.3597 39.3997C54.1782 36.8751 55.7532 33.8899 57.0846 30.4441C58.416 26.9984 59.3415 23.7232 59.8611 20.6186C60.0559 19.561 60.5106 19.0322 61.225 19.0322C61.9394 19.0322 62.459 19.5098 62.7837 20.4651C62.8812 20.7721 62.9299 21.1304 62.9299 21.5398ZM79.3339 39.0926C79.3339 40.1843 79.7561 40.7302 80.6004 40.7302C82.1267 40.7302 84.1563 38.0521 86.6892 32.6958C86.7866 32.4911 86.8678 32.2864 86.9328 32.0817C87.0302 31.877 87.1601 31.7405 87.3224 31.6723C87.5173 31.6041 87.6472 31.6553 87.7121 31.8258C87.7771 31.9623 87.7446 32.2011 87.6147 32.5423C85.0168 38.8879 82.3864 42.0607 79.7236 42.0607C78.8468 42.0607 78.1486 41.6513 77.6291 40.8325C77.1095 40.0138 76.8497 39.212 76.8497 38.4273C76.8497 37.6086 76.9309 36.858 77.0932 36.1757C75.2098 39.4508 73.5861 41.3102 72.2222 41.7537C71.8325 41.9243 71.4428 42.0096 71.0532 42.0096C70.6959 42.0096 70.3387 41.9584 69.9815 41.856C68.3903 41.4125 67.5947 40.082 67.5947 37.8644C67.5947 36.3633 67.9519 34.7087 68.6663 32.9005C69.4132 31.0582 70.4524 29.3012 71.7838 27.6295C73.1152 25.9578 74.7227 24.832 76.6061 24.252C77.2881 24.0132 78.0837 23.8938 78.993 23.8938C79.9347 23.8938 80.9738 24.2008 82.1104 24.8149C84.3186 20.448 86.2021 16.4053 87.7608 12.6866C88.2155 11.5607 88.6538 10.8443 89.076 10.5372C89.5306 10.1961 89.9366 10.0255 90.2938 10.0255C90.6835 10.0255 90.9108 10.0255 90.9757 10.0255C91.0731 10.0255 91.3816 10.0767 91.9012 10.179C92.4533 10.2473 92.8754 10.2643 93.1677 10.2302C92.4208 10.9466 90.4399 14.4265 87.225 20.6698C83.1333 28.653 80.6653 33.9752 79.821 36.6362C79.4963 37.6256 79.3339 38.4444 79.3339 39.0926ZM81.7207 25.6337C81.2986 25.1902 80.6978 24.9685 79.9184 24.9685C79.1716 24.9685 78.1162 25.5655 76.7523 26.7596C74.5765 28.6701 72.7743 31.0241 71.3454 33.8216C70.4037 35.6639 69.9328 37.1821 69.9328 38.3762C69.9328 38.922 70.0302 39.4167 70.2251 39.8602C70.4524 40.3037 70.7934 40.5255 71.248 40.5255C72.3521 40.5255 73.716 39.3314 75.3397 36.9433C76.9633 34.5551 79.0904 30.7853 81.7207 25.6337ZM89.0852 34.1799C88.6306 35.3398 88.4033 36.6362 88.4033 38.0691C88.4033 39.0244 88.5981 39.792 88.9878 40.372C89.4099 40.9178 89.9945 41.1908 90.7414 41.1908C93.6965 41.1908 96.3755 38.2738 98.7786 32.4399C99.0059 31.8941 99.2819 31.6553 99.6067 31.7235C99.7366 31.7576 99.8015 31.8429 99.8015 31.9794C99.8015 32.1158 99.4281 33.0199 98.6812 34.6916C97.9668 36.3292 97.2361 37.6597 96.4892 38.6832C94.833 41.0714 92.7872 42.2654 90.3517 42.2654C89.0527 42.2654 87.9486 41.8219 87.0394 40.9349C86.1301 40.0479 85.6755 38.8367 85.6755 37.3015C85.6755 35.7663 86.0165 34.1457 86.6984 32.4399C87.4128 30.7 88.3708 29.0965 89.5723 27.6295C90.7738 26.1284 92.154 25.0367 93.7127 24.3544C94.4596 24.0132 95.174 23.8426 95.856 23.8426C96.5379 23.8426 97.1711 24.0473 97.7557 24.4567C98.3077 24.9343 98.5837 25.4631 98.5837 26.0431C98.5837 28.0901 97.4147 30.0518 95.0766 31.9282C94.3622 32.5082 93.3555 33.037 92.0565 33.5146C90.7576 33.9581 89.7672 34.1799 89.0852 34.1799ZM97.2686 25.9919C97.2686 25.3096 97.0088 24.9685 96.4892 24.9685C95.5799 24.9685 94.1998 26.1455 92.3488 28.4995C91.2447 29.9324 90.2705 31.5358 89.4262 33.3099C89.9782 33.3099 90.7738 33.1052 91.813 32.6958C92.8846 32.2864 93.8101 31.7405 94.5895 31.0582C96.3755 29.4548 97.2686 27.766 97.2686 25.9919ZM113.64 25.2755C109.646 32.6446 107.648 37.455 107.648 39.7067C107.648 40.5937 107.957 41.0372 108.574 41.0372C110.23 41.0372 112.455 38.0862 115.247 32.1841C115.442 31.7064 115.637 31.5188 115.832 31.6211C116.027 31.7235 116.124 31.86 116.124 32.0305C116.124 32.2011 116.059 32.4058 115.929 32.6446C114.208 36.2951 112.747 38.8197 111.545 40.2185C110.376 41.5831 109.191 42.2654 107.989 42.2654C106.82 42.2654 105.927 41.7878 105.31 40.8325C104.986 40.389 104.823 39.792 104.823 39.0414C104.823 38.2568 104.986 37.3186 105.31 36.2268C105.635 35.1351 106.528 33.3611 107.989 30.9047C108.347 30.2906 108.525 29.813 108.525 29.4718C108.525 29.0965 108.249 28.9089 107.697 28.9089C107.145 28.9089 106.09 29.6765 104.531 31.2117C102.193 33.4634 99.936 36.8409 97.76 41.3443C97.5654 41.6855 97.3381 41.9072 97.0783 42.0096C96.851 42.0778 96.3799 42.129 95.6654 42.1631C94.951 42.1972 94.4802 42.2825 94.2528 42.419C94.7724 41.3272 95.7953 39.0926 97.3219 35.7151C100.05 29.7447 101.836 26.3331 102.68 25.4802C103.07 25.0708 103.606 24.8661 104.287 24.8661C104.417 24.8661 104.742 24.9173 105.262 25.0196C105.814 25.122 106.22 25.139 106.479 25.0708C105.278 25.7531 103.313 28.9601 100.585 34.6916C102.112 32.7129 103.492 31.1435 104.726 29.9836C105.992 28.7895 107.502 27.6978 109.256 26.7084C111.01 25.6849 112.292 25.1732 113.104 25.1732C113.299 25.1732 113.478 25.2073 113.64 25.2755ZM121.918 22.1539C121.464 22.5633 120.961 22.768 120.408 22.768C119.856 22.768 119.418 22.5633 119.093 22.1539C118.769 21.7445 118.639 21.2498 118.704 20.6698C118.801 20.0898 119.077 19.5951 119.532 19.1857C119.986 18.7763 120.49 18.5716 121.042 18.5716C121.594 18.5716 122.032 18.7763 122.357 19.1857C122.714 19.5951 122.844 20.0898 122.747 20.6698C122.649 21.2498 122.373 21.7445 121.918 22.1539ZM117.145 40.9349C117.762 40.9349 118.411 40.6108 119.093 39.9626C120.295 38.7003 121.821 36.1245 123.672 32.2352C123.899 31.7235 124.127 31.57 124.354 31.7747C124.419 31.8429 124.451 31.9623 124.451 32.1329C124.451 32.2693 124.322 32.6446 124.062 33.2587C123.802 33.8387 123.558 34.3675 123.331 34.8451C123.136 35.3228 122.73 36.1074 122.113 37.1992C121.529 38.2568 120.993 39.0756 120.506 39.6555C119.174 41.259 117.908 42.0607 116.706 42.0607C115.537 42.0607 114.693 41.6855 114.174 40.9349C113.654 40.1843 113.394 39.3485 113.394 38.4273C113.394 37.5062 113.605 36.4998 114.027 35.408L117.145 27.0666C117.21 26.8619 117.242 26.589 117.242 26.2478C117.242 25.9067 117.047 25.4631 116.658 24.9173L119.337 24.8661C120.084 24.8661 120.522 25.0196 120.652 25.3267C120.782 25.5996 120.684 26.0431 120.36 26.6572L116.463 36.2268C115.911 37.4891 115.635 38.5638 115.635 39.4508C115.635 40.4402 116.138 40.9349 117.145 40.9349ZM125.953 27.0666C126.051 26.8619 126.099 26.589 126.099 26.2478C126.099 25.9067 125.888 25.4631 125.466 24.9173L128.145 24.8661C128.892 24.8661 129.331 25.0196 129.46 25.3267C129.59 25.5996 129.493 26.0431 129.168 26.6572L125.271 36.2268C124.46 38.2397 123.453 40.4914 122.251 42.9819C123.518 42.4701 124.443 42.0778 125.028 41.8049C125.612 41.5319 126.311 41.0372 127.122 40.3208C127.967 39.6044 128.681 38.7856 129.266 37.8644C129.883 36.9092 130.906 35.0157 132.334 32.1841C132.562 31.7064 132.757 31.5188 132.919 31.6211C133.114 31.7235 133.211 31.86 133.211 32.0305C133.211 32.2011 132.935 32.8664 132.383 34.0263C131.864 35.1522 131.328 36.2098 130.776 37.1992C130.224 38.1885 129.509 39.195 128.632 40.2185C127.756 41.2419 126.781 42.0607 125.71 42.6748C124.638 43.2889 123.209 43.9371 121.423 44.6195C118.923 49.3957 116.39 52.9097 113.824 55.1614C112.85 56.0143 111.697 56.7308 110.366 57.3107C109.035 57.9248 107.654 58.2319 106.226 58.2319C104.764 58.2319 103.644 57.9078 102.865 57.2596C102.085 56.6455 101.696 55.8949 101.696 55.0079C101.696 54.1209 101.939 53.1144 102.426 51.9886C103.27 50.2487 104.797 48.8499 107.005 47.7923C108.661 46.9735 110.853 46.2059 113.581 45.4894C116.309 44.8071 118.062 44.3465 118.842 44.1077C119.653 42.6407 120.141 41.7537 120.303 41.4466C120.433 41.1055 121.602 38.5468 123.81 33.7705C123.29 33.7705 123.144 33.4975 123.372 32.9517L125.953 27.0666ZM103.352 53.1656C102.994 53.9162 102.816 54.5985 102.816 55.2126C102.816 55.8267 103.043 56.3043 103.498 56.6455C103.952 57.0207 104.505 57.2084 105.154 57.2084C107.037 57.2084 109.067 56.1849 111.243 54.1379C114.295 51.2721 116.52 48.4746 117.916 45.7453C112.525 47.2464 109.164 48.304 107.833 48.9181C105.722 49.8734 104.228 51.2892 103.352 53.1656ZM130.386 22.1539C129.931 22.5633 129.428 22.768 128.876 22.768C128.324 22.768 127.902 22.5803 127.609 22.205C127.317 21.8298 127.171 21.5056 127.171 21.2327C127.171 20.9598 127.187 20.6527 127.22 20.3116C127.285 19.9704 127.545 19.5951 127.999 19.1857C128.454 18.7763 128.957 18.5716 129.509 18.5716C130.061 18.5716 130.483 18.7593 130.776 19.1346C131.1 19.4757 131.263 19.7828 131.263 20.0557C131.263 20.3286 131.23 20.6527 131.165 21.028C131.1 21.3692 130.841 21.7445 130.386 22.1539ZM147.13 28.1924C146.546 28.8065 145.718 30.2053 144.646 32.3888C143.575 34.5381 142.925 36.1586 142.698 37.2503C142.503 38.3079 142.406 39.1779 142.406 39.8602C142.406 40.5084 142.649 40.8325 143.136 40.8325C143.753 40.8325 144.516 40.2355 145.426 39.0414C146.757 37.3015 148.072 35.0328 149.371 32.2352C149.501 31.9282 149.647 31.7576 149.81 31.7235C150.069 31.6211 150.199 31.7235 150.199 32.0305C150.199 32.2011 150.151 32.4058 150.053 32.6446C147.066 38.9903 144.549 42.1631 142.503 42.1631C141.561 42.1631 140.798 41.6855 140.214 40.7302C139.921 40.2185 139.775 39.5361 139.775 38.6832C139.775 37.8303 139.938 36.7898 140.262 35.5616C137.664 39.9626 135.424 42.1631 133.54 42.1631C133.021 42.1631 132.55 41.9925 132.128 41.6513C131.153 40.9349 130.666 39.7067 130.666 37.9668C130.666 34.6234 132.046 31.2288 134.807 27.7831C136.365 25.8725 138.281 24.6273 140.555 24.0473C141.172 23.8767 141.756 23.7914 142.308 23.7914C143.802 23.7914 145.068 24.3373 146.108 25.429C146.432 25.8043 146.53 26.1625 146.4 26.5037C146.27 26.8449 145.994 26.9813 145.572 26.9131C145.215 25.6849 144.435 25.0708 143.234 25.0708C141.837 25.0708 140.116 26.2308 138.07 28.5507C136.901 29.9153 135.813 31.5188 134.807 33.3611C133.54 35.5786 132.907 37.3527 132.907 38.6832C132.907 40.0138 133.313 40.679 134.125 40.679C136.073 40.679 138.622 37.5403 141.772 31.2629C142.389 30.0006 142.909 29.1477 143.331 28.7042C143.753 28.2266 144.289 27.9877 144.938 27.9877C145.068 27.9877 145.393 28.0389 145.913 28.1413C146.465 28.2436 146.871 28.2607 147.13 28.1924Z" fill="#292929"/>
<path d="M10.2336 18.4181C8.67483 21.9662 7.89547 25.139 7.89547 27.9366C7.89547 33.7022 9.77894 37.2333 13.5459 38.5297C14.65 38.8367 15.7703 38.9903 16.9069 38.9903C18.0759 38.9903 19.245 38.8367 20.414 38.5297C22.7521 37.8815 24.8467 36.9092 26.6977 35.6127C28.5487 34.3163 29.7177 33.0711 30.2048 31.877C31.5038 28.7042 32.9002 27.1178 34.3939 27.1178C35.1408 27.1178 35.6442 27.5613 35.904 28.4483C36.0339 28.7895 36.0663 29.1648 36.0014 29.5742C35.6767 32.2352 34.9785 34.8792 33.9068 37.5062C32.8352 40.099 31.3252 43.0842 29.3768 46.4617C33.2736 46.4959 36.8295 46.9394 40.0444 47.7923C40.7263 47.9629 41.0673 48.2017 41.0673 48.5087C41.0673 48.884 40.5964 48.9522 39.6547 48.7134C37.414 48.0993 34.1829 47.7923 29.9613 47.7923C29.5716 47.7923 29.1495 47.7923 28.6948 47.7923C26.7139 50.7945 24.0673 53.4385 20.755 55.7243C17.4752 58.0442 14.2765 59.6306 11.1591 60.4836C9.43796 60.9612 7.97665 61.2 6.77513 61.2C5.5736 61.2 4.56692 61.0465 3.75508 60.7394C1.38451 59.8183 0.199219 58.6072 0.199219 57.106C0.199219 56.6625 0.312876 56.1849 0.540192 55.6731C1.41698 53.6262 3.72261 51.7327 7.45707 49.9928C10.2823 48.6622 13.2536 47.7582 16.3711 47.2805C19.521 46.8029 23.0444 46.53 26.9412 46.4617C29.3443 42.1972 30.9842 38.0009 31.861 33.8728L32.0558 33.0028C30.4971 34.5722 28.7273 35.971 26.7464 37.1992C24.798 38.3932 23.0931 39.2291 21.6318 39.7067C19.2937 40.4914 17.3615 40.8837 15.8353 40.8837C14.3415 40.8837 13.0263 40.662 11.8897 40.2185C9.81141 39.4679 8.12278 37.9668 6.82384 35.7151C5.42747 33.327 4.72929 30.4782 4.72929 27.169C4.72929 23.8597 5.55737 20.3116 7.21352 16.5247C5.07026 14.2048 3.99863 11.7484 3.99863 9.15553C3.99863 6.52858 5.00531 4.03808 7.01868 1.68406C7.40836 1.24054 7.68439 1.08702 7.84676 1.22348C8.0416 1.32584 7.97665 1.61583 7.65191 2.09345C6.1906 4.14043 5.45995 6.20447 5.45995 8.28557C5.45995 10.6737 6.30426 12.9083 7.99289 14.9894C8.18773 14.5459 8.54494 13.8806 9.06452 12.9936C11.5975 8.62673 15.0397 5.28333 19.3911 2.96342C22.8009 1.12114 26.0969 0.199997 29.2793 0.199997C30.1561 0.199997 31.0329 0.26823 31.9097 0.404696C36.0988 1.08702 38.924 2.89519 40.3853 5.82919C40.9699 6.98915 41.2621 8.25145 41.2621 9.6161C41.2621 10.9466 40.8562 12.3795 40.0444 13.9148C38.2258 17.224 35.0434 19.544 30.4971 20.8745C28.0941 21.5909 25.6423 21.9492 23.1418 21.9492C17.8811 21.9492 13.5784 20.7721 10.2336 18.4181ZM30.3997 1.7864C27.607 1.7864 24.6519 2.77578 21.5344 4.75453C16.9556 7.6203 13.3997 11.7313 10.8668 17.0876C12.3931 18.3158 14.1466 19.1857 16.1275 19.6975C18.1409 20.2092 19.7483 20.4651 20.9499 20.4651C27.8018 20.4651 32.9813 18.5375 36.4885 14.6824C38.2421 12.7036 39.1189 10.7249 39.1189 8.74614C39.1189 5.60744 37.4465 3.49222 34.1017 2.4005C32.8677 1.9911 31.6337 1.7864 30.3997 1.7864ZM2.68345 57.4643C2.68345 58.4195 3.46282 59.0677 5.02155 59.4089C5.54113 59.5454 6.10942 59.6136 6.72642 59.6136C9.03204 59.6136 11.9547 58.7436 15.4943 57.0037C19.9757 54.8544 23.5315 51.8009 26.1619 47.8435C22.7522 47.9458 19.7646 48.2187 17.1992 48.6622C13.4972 49.2422 9.97378 50.658 6.629 52.9097C3.99863 54.6838 2.68345 56.2019 2.68345 57.4643ZM54.1809 28.1924C53.5964 28.8065 52.7683 30.2053 51.6967 32.3888C50.6251 34.5381 49.9756 36.1586 49.7483 37.2503C49.5534 38.3079 49.456 39.1779 49.456 39.8602C49.456 40.5084 49.6996 40.8325 50.1867 40.8325C50.8037 40.8325 51.5668 40.2355 52.4761 39.0414C53.8075 37.3015 55.1227 35.0328 56.4216 32.2352C56.5515 31.9282 56.6976 31.7576 56.86 31.7235C57.1198 31.6211 57.2497 31.7235 57.2497 32.0305C57.2497 32.2011 57.201 32.4058 57.1036 32.6446C54.116 38.9903 51.5993 42.1631 49.5534 42.1631C48.6117 42.1631 47.8486 41.6855 47.2641 40.7302C46.9718 40.2185 46.8257 39.5361 46.8257 38.6832C46.8257 37.8303 46.988 36.7898 47.3128 35.5616C44.7149 39.9626 42.4742 42.1631 40.5907 42.1631C40.0711 42.1631 39.6003 41.9925 39.1781 41.6513C38.2039 40.9349 37.7168 39.7067 37.7168 37.9668C37.7168 34.6234 39.0969 31.2288 41.8572 27.7831C43.4159 25.8725 45.3319 24.6273 47.605 24.0473C48.222 23.8767 48.8065 23.7914 49.3586 23.7914C50.8524 23.7914 52.1189 24.3373 53.158 25.429C53.4828 25.8043 53.5802 26.1625 53.4503 26.5037C53.3204 26.8449 53.0444 26.9813 52.6222 26.9131C52.265 25.6849 51.4856 25.0708 50.2841 25.0708C48.8877 25.0708 47.1666 26.2308 45.1208 28.5507C43.9517 29.9153 42.8639 31.5188 41.8572 33.3611C40.5907 35.5786 39.9575 37.3527 39.9575 38.6832C39.9575 40.0138 40.3634 40.679 41.1752 40.679C43.1237 40.679 45.6728 37.5403 48.8228 31.2629C49.4398 30.0006 49.9594 29.1477 50.3815 28.7042C50.8037 28.2266 51.3395 27.9877 51.989 27.9877C52.1189 27.9877 52.4436 28.0389 52.9632 28.1413C53.5152 28.2436 53.9211 28.2607 54.1809 28.1924ZM62.9299 21.5398C62.9299 23.075 62.0044 24.5249 60.1534 25.8896C60.8028 25.9237 61.6634 25.9408 62.735 25.9408C63.8391 25.9408 65.2193 25.8555 66.8754 25.6849C66.9404 25.7872 66.9728 26.0602 66.9728 26.5037C66.9728 26.9472 66.778 27.6125 66.3883 28.4995C65.9986 29.3524 65.6414 30.103 65.3167 30.7512C65.0244 31.3653 64.7322 31.9623 64.4399 32.5423C64.1801 33.0881 63.8716 33.7705 63.5144 34.5893C63.1897 35.408 62.9136 36.1586 62.6863 36.8409C61.8745 39.4338 62.0044 40.7302 63.076 40.7302C64.4399 40.7302 66.4533 37.8815 69.1161 32.1841C69.3434 31.7405 69.522 31.57 69.6519 31.6723C69.8143 31.7747 69.8955 31.9111 69.8955 32.0817C69.8955 32.2182 69.6844 32.747 69.2622 33.6681C68.8401 34.5551 68.3854 35.4763 67.8983 36.4315C67.4112 37.3868 66.6481 38.4956 65.6089 39.7579C64.3749 41.3272 63.1897 42.1119 62.0531 42.1119C60.7866 42.1119 59.9098 41.3102 59.4227 39.7067C59.3253 39.3997 59.2766 38.9391 59.2766 38.325C59.2766 37.7109 59.4552 36.8921 59.8124 35.8686C60.2021 34.8451 60.8028 33.5999 61.6147 32.1329C62.4265 30.6659 62.8812 29.813 62.9786 29.5742C63.076 29.3012 63.1247 29.0454 63.1247 28.8065C63.1247 27.7489 61.8258 27.186 59.2279 27.1178L58.6433 28.7554C56.5975 34.3846 54.6329 38.1544 52.7494 40.0649C52.4247 40.372 52.2623 40.2696 52.2623 39.7579C52.2623 39.6555 52.2948 39.5361 52.3597 39.3997C54.1782 36.8751 55.7532 33.8899 57.0846 30.4441C58.416 26.9984 59.3415 23.7232 59.8611 20.6186C60.0559 19.561 60.5106 19.0322 61.225 19.0322C61.9394 19.0322 62.459 19.5098 62.7837 20.4651C62.8812 20.7721 62.9299 21.1304 62.9299 21.5398ZM79.3339 39.0926C79.3339 40.1843 79.7561 40.7302 80.6004 40.7302C82.1267 40.7302 84.1563 38.0521 86.6892 32.6958C86.7866 32.4911 86.8678 32.2864 86.9328 32.0817C87.0302 31.877 87.1601 31.7405 87.3224 31.6723C87.5173 31.6041 87.6472 31.6553 87.7121 31.8258C87.7771 31.9623 87.7446 32.2011 87.6147 32.5423C85.0168 38.8879 82.3864 42.0607 79.7236 42.0607C78.8468 42.0607 78.1486 41.6513 77.6291 40.8325C77.1095 40.0138 76.8497 39.212 76.8497 38.4273C76.8497 37.6086 76.9309 36.858 77.0932 36.1757C75.2098 39.4508 73.5861 41.3102 72.2222 41.7537C71.8325 41.9243 71.4428 42.0096 71.0532 42.0096C70.6959 42.0096 70.3387 41.9584 69.9815 41.856C68.3903 41.4125 67.5947 40.082 67.5947 37.8644C67.5947 36.3633 67.9519 34.7087 68.6663 32.9005C69.4132 31.0582 70.4524 29.3012 71.7838 27.6295C73.1152 25.9578 74.7227 24.832 76.6061 24.252C77.2881 24.0132 78.0837 23.8938 78.993 23.8938C79.9347 23.8938 80.9738 24.2008 82.1104 24.8149C84.3186 20.448 86.2021 16.4053 87.7608 12.6866C88.2155 11.5607 88.6538 10.8443 89.076 10.5372C89.5306 10.1961 89.9366 10.0255 90.2938 10.0255C90.6835 10.0255 90.9108 10.0255 90.9757 10.0255C91.0731 10.0255 91.3816 10.0767 91.9012 10.179C92.4533 10.2473 92.8754 10.2643 93.1677 10.2302C92.4208 10.9466 90.4399 14.4265 87.225 20.6698C83.1333 28.653 80.6653 33.9752 79.821 36.6362C79.4963 37.6256 79.3339 38.4444 79.3339 39.0926ZM81.7207 25.6337C81.2986 25.1902 80.6978 24.9685 79.9184 24.9685C79.1716 24.9685 78.1162 25.5655 76.7523 26.7596C74.5765 28.6701 72.7743 31.0241 71.3454 33.8216C70.4037 35.6639 69.9328 37.1821 69.9328 38.3762C69.9328 38.922 70.0302 39.4167 70.2251 39.8602C70.4524 40.3037 70.7934 40.5255 71.248 40.5255C72.3521 40.5255 73.716 39.3314 75.3397 36.9433C76.9633 34.5551 79.0904 30.7853 81.7207 25.6337ZM89.0852 34.1799C88.6306 35.3398 88.4033 36.6362 88.4033 38.0691C88.4033 39.0244 88.5981 39.792 88.9878 40.372C89.4099 40.9178 89.9945 41.1908 90.7414 41.1908C93.6965 41.1908 96.3755 38.2738 98.7786 32.4399C99.0059 31.8941 99.2819 31.6553 99.6067 31.7235C99.7366 31.7576 99.8015 31.8429 99.8015 31.9794C99.8015 32.1158 99.4281 33.0199 98.6812 34.6916C97.9668 36.3292 97.2361 37.6597 96.4892 38.6832C94.833 41.0714 92.7872 42.2654 90.3517 42.2654C89.0527 42.2654 87.9486 41.8219 87.0394 40.9349C86.1301 40.0479 85.6755 38.8367 85.6755 37.3015C85.6755 35.7663 86.0165 34.1457 86.6984 32.4399C87.4128 30.7 88.3708 29.0965 89.5723 27.6295C90.7738 26.1284 92.154 25.0367 93.7127 24.3544C94.4596 24.0132 95.174 23.8426 95.856 23.8426C96.5379 23.8426 97.1711 24.0473 97.7557 24.4567C98.3077 24.9343 98.5837 25.4631 98.5837 26.0431C98.5837 28.0901 97.4147 30.0518 95.0766 31.9282C94.3622 32.5082 93.3555 33.037 92.0565 33.5146C90.7576 33.9581 89.7672 34.1799 89.0852 34.1799ZM97.2686 25.9919C97.2686 25.3096 97.0088 24.9685 96.4892 24.9685C95.5799 24.9685 94.1998 26.1455 92.3488 28.4995C91.2447 29.9324 90.2705 31.5358 89.4262 33.3099C89.9782 33.3099 90.7738 33.1052 91.813 32.6958C92.8846 32.2864 93.8101 31.7405 94.5895 31.0582C96.3755 29.4548 97.2686 27.766 97.2686 25.9919ZM113.64 25.2755C109.646 32.6446 107.648 37.455 107.648 39.7067C107.648 40.5937 107.957 41.0372 108.574 41.0372C110.23 41.0372 112.455 38.0862 115.247 32.1841C115.442 31.7064 115.637 31.5188 115.832 31.6211C116.027 31.7235 116.124 31.86 116.124 32.0305C116.124 32.2011 116.059 32.4058 115.929 32.6446C114.208 36.2951 112.747 38.8197 111.545 40.2185C110.376 41.5831 109.191 42.2654 107.989 42.2654C106.82 42.2654 105.927 41.7878 105.31 40.8325C104.986 40.389 104.823 39.792 104.823 39.0414C104.823 38.2568 104.986 37.3186 105.31 36.2268C105.635 35.1351 106.528 33.3611 107.989 30.9047C108.347 30.2906 108.525 29.813 108.525 29.4718C108.525 29.0965 108.249 28.9089 107.697 28.9089C107.145 28.9089 106.09 29.6765 104.531 31.2117C102.193 33.4634 99.936 36.8409 97.76 41.3443C97.5654 41.6855 97.3381 41.9072 97.0783 42.0096C96.851 42.0778 96.3799 42.129 95.6654 42.1631C94.951 42.1972 94.4802 42.2825 94.2528 42.419C94.7724 41.3272 95.7953 39.0926 97.3219 35.7151C100.05 29.7447 101.836 26.3331 102.68 25.4802C103.07 25.0708 103.606 24.8661 104.287 24.8661C104.417 24.8661 104.742 24.9173 105.262 25.0196C105.814 25.122 106.22 25.139 106.479 25.0708C105.278 25.7531 103.313 28.9601 100.585 34.6916C102.112 32.7129 103.492 31.1435 104.726 29.9836C105.992 28.7895 107.502 27.6978 109.256 26.7084C111.01 25.6849 112.292 25.1732 113.104 25.1732C113.299 25.1732 113.478 25.2073 113.64 25.2755ZM121.918 22.1539C121.464 22.5633 120.961 22.768 120.408 22.768C119.856 22.768 119.418 22.5633 119.093 22.1539C118.769 21.7445 118.639 21.2498 118.704 20.6698C118.801 20.0898 119.077 19.5951 119.532 19.1857C119.986 18.7763 120.49 18.5716 121.042 18.5716C121.594 18.5716 122.032 18.7763 122.357 19.1857C122.714 19.5951 122.844 20.0898 122.747 20.6698C122.649 21.2498 122.373 21.7445 121.918 22.1539ZM117.145 40.9349C117.762 40.9349 118.411 40.6108 119.093 39.9626C120.295 38.7003 121.821 36.1245 123.672 32.2352C123.899 31.7235 124.127 31.57 124.354 31.7747C124.419 31.8429 124.451 31.9623 124.451 32.1329C124.451 32.2693 124.322 32.6446 124.062 33.2587C123.802 33.8387 123.558 34.3675 123.331 34.8451C123.136 35.3228 122.73 36.1074 122.113 37.1992C121.529 38.2568 120.993 39.0756 120.506 39.6555C119.174 41.259 117.908 42.0607 116.706 42.0607C115.537 42.0607 114.693 41.6855 114.174 40.9349C113.654 40.1843 113.394 39.3485 113.394 38.4273C113.394 37.5062 113.605 36.4998 114.027 35.408L117.145 27.0666C117.21 26.8619 117.242 26.589 117.242 26.2478C117.242 25.9067 117.047 25.4631 116.658 24.9173L119.337 24.8661C120.084 24.8661 120.522 25.0196 120.652 25.3267C120.782 25.5996 120.684 26.0431 120.36 26.6572L116.463 36.2268C115.911 37.4891 115.635 38.5638 115.635 39.4508C115.635 40.4402 116.138 40.9349 117.145 40.9349ZM125.953 27.0666C126.051 26.8619 126.099 26.589 126.099 26.2478C126.099 25.9067 125.888 25.4631 125.466 24.9173L128.145 24.8661C128.892 24.8661 129.331 25.0196 129.46 25.3267C129.59 25.5996 129.493 26.0431 129.168 26.6572L125.271 36.2268C124.46 38.2397 123.453 40.4914 122.251 42.9819C123.518 42.4701 124.443 42.0778 125.028 41.8049C125.612 41.5319 126.311 41.0372 127.122 40.3208C127.967 39.6044 128.681 38.7856 129.266 37.8644C129.883 36.9092 130.906 35.0157 132.334 32.1841C132.562 31.7064 132.757 31.5188 132.919 31.6211C133.114 31.7235 133.211 31.86 133.211 32.0305C133.211 32.2011 132.935 32.8664 132.383 34.0263C131.864 35.1522 131.328 36.2098 130.776 37.1992C130.224 38.1885 129.509 39.195 128.632 40.2185C127.756 41.2419 126.781 42.0607 125.71 42.6748C124.638 43.2889 123.209 43.9371 121.423 44.6195C118.923 49.3957 116.39 52.9097 113.824 55.1614C112.85 56.0143 111.697 56.7308 110.366 57.3107C109.035 57.9248 107.654 58.2319 106.226 58.2319C104.764 58.2319 103.644 57.9078 102.865 57.2596C102.085 56.6455 101.696 55.8949 101.696 55.0079C101.696 54.1209 101.939 53.1144 102.426 51.9886C103.27 50.2487 104.797 48.8499 107.005 47.7923C108.661 46.9735 110.853 46.2059 113.581 45.4894C116.309 44.8071 118.062 44.3465 118.842 44.1077C119.653 42.6407 120.141 41.7537 120.303 41.4466C120.433 41.1055 121.602 38.5468 123.81 33.7705C123.29 33.7705 123.144 33.4975 123.372 32.9517L125.953 27.0666ZM103.352 53.1656C102.994 53.9162 102.816 54.5985 102.816 55.2126C102.816 55.8267 103.043 56.3043 103.498 56.6455C103.952 57.0207 104.505 57.2084 105.154 57.2084C107.037 57.2084 109.067 56.1849 111.243 54.1379C114.295 51.2721 116.52 48.4746 117.916 45.7453C112.525 47.2464 109.164 48.304 107.833 48.9181C105.722 49.8734 104.228 51.2892 103.352 53.1656ZM130.386 22.1539C129.931 22.5633 129.428 22.768 128.876 22.768C128.324 22.768 127.902 22.5803 127.609 22.205C127.317 21.8298 127.171 21.5056 127.171 21.2327C127.171 20.9598 127.187 20.6527 127.22 20.3116C127.285 19.9704 127.545 19.5951 127.999 19.1857C128.454 18.7763 128.957 18.5716 129.509 18.5716C130.061 18.5716 130.483 18.7593 130.776 19.1346C131.1 19.4757 131.263 19.7828 131.263 20.0557C131.263 20.3286 131.23 20.6527 131.165 21.028C131.1 21.3692 130.841 21.7445 130.386 22.1539ZM147.13 28.1924C146.546 28.8065 145.718 30.2053 144.646 32.3888C143.575 34.5381 142.925 36.1586 142.698 37.2503C142.503 38.3079 142.406 39.1779 142.406 39.8602C142.406 40.5084 142.649 40.8325 143.136 40.8325C143.753 40.8325 144.516 40.2355 145.426 39.0414C146.757 37.3015 148.072 35.0328 149.371 32.2352C149.501 31.9282 149.647 31.7576 149.81 31.7235C150.069 31.6211 150.199 31.7235 150.199 32.0305C150.199 32.2011 150.151 32.4058 150.053 32.6446C147.066 38.9903 144.549 42.1631 142.503 42.1631C141.561 42.1631 140.798 41.6855 140.214 40.7302C139.921 40.2185 139.775 39.5361 139.775 38.6832C139.775 37.8303 139.938 36.7898 140.262 35.5616C137.664 39.9626 135.424 42.1631 133.54 42.1631C133.021 42.1631 132.55 41.9925 132.128 41.6513C131.153 40.9349 130.666 39.7067 130.666 37.9668C130.666 34.6234 132.046 31.2288 134.807 27.7831C136.365 25.8725 138.281 24.6273 140.555 24.0473C141.172 23.8767 141.756 23.7914 142.308 23.7914C143.802 23.7914 145.068 24.3373 146.108 25.429C146.432 25.8043 146.53 26.1625 146.4 26.5037C146.27 26.8449 145.994 26.9813 145.572 26.9131C145.215 25.6849 144.435 25.0708 143.234 25.0708C141.837 25.0708 140.116 26.2308 138.07 28.5507C136.901 29.9153 135.813 31.5188 134.807 33.3611C133.54 35.5786 132.907 37.3527 132.907 38.6832C132.907 40.0138 133.313 40.679 134.125 40.679C136.073 40.679 138.622 37.5403 141.772 31.2629C142.389 30.0006 142.909 29.1477 143.331 28.7042C143.753 28.2266 144.289 27.9877 144.938 27.9877C145.068 27.9877 145.393 28.0389 145.913 28.1413C146.465 28.2436 146.871 28.2607 147.13 28.1924Z" stroke="#292929" stroke-width="0.4" mask="url(#path-1-outside-1_740_5)"/>
</svg>
