<svg width="129" height="11" viewBox="0 0 129 11" fill="none" xmlns="http://www.w3.org/2000/svg">
<path d="M124.748 0.948997C93.1158 -0.223114 61.4212 -0.343556 29.7834 0.778615C24.9261 0.950466 20.0739 1.18988 15.2184 1.39698C13.2919 1.48071 11.3673 1.60849 9.44429 1.75097C8.13192 1.84644 6.81439 1.91107 5.50375 2.02564C3.97982 2.1593 3.01662 2.53091 2.16865 3.35932C-0.853401 3.70008 -0.669361 7.51752 2.42321 7.50724C3.38126 8.22108 4.3049 8.53687 5.85979 8.5119C7.00532 8.49281 8.15256 8.4884 9.29809 8.46931C11.7457 8.42965 14.1932 8.36062 16.6391 8.29305C20.5951 8.18583 24.5494 8.09182 28.5054 8.00223C36.3917 7.8245 44.2744 7.71581 52.1624 7.64824C67.6167 7.51458 83.0675 7.60859 98.5183 7.94641C105.151 8.09182 111.783 8.28571 118.41 8.52072C118.883 10.3788 121.826 11.7888 123.73 10.5051C125.23 9.34031 126.73 8.17702 128.23 7.01372C130.22 4.61662 128.102 1.07238 124.748 0.948997Z" fill="url(#paint0_linear_790_106)"/>
<defs>
<linearGradient id="paint0_linear_790_106" x1="129" y1="5.5" x2="0" y2="5.5" gradientUnits="userSpaceOnUse">
<stop stop-color="#C5D678"/>
<stop offset="1" stop-color="#70B27E"/>
</linearGradient>
</defs>
</svg>
